# xmcd
#
# Track frame offsets:
#        150
#        14655
#        31563
#        49798
#        67550
#        84345
#        107038
#        131655
#        146365
#        160883
#        178280
#        194728
#        209263
#        227033
#        243543
#        273563
#
# Disc length: 4039 seconds
#
# Revision: 0
# Processed by: cddbd v1.5.1PL0 Copyright (c) Steve Scherf et al.
# Submitted via: ExactAudioCopy v0.95a5
#
DISCID=de0fc510
DTITLE=Pink - Try This
DYEAR=2003
DGENRE=Rock
TTITLE0=Trouble
TTITLE1=God Is A DJ
TTITLE2=Last To Know
TTITLE3=Tonight's The Night
TTITLE4=Oh My God (Featuring Peaches)
TTITLE5=Catch Me While I'm Sleeping
TTITLE6=Waiting For Love
TTITLE7=Save My Life
TTITLE8=Try Too Hard
TTITLE9=Humble Neighborhoods
TTITLE10=Walk Away
TTITLE11=Unwind
TTITLE12=Feel Good Time
TTITLE13=Delirium
TTITLE14=Free
TTITLE15=Love Song
EXTD=
EXTT0=
EXTT1=
EXTT2=
EXTT3=
EXTT4=
EXTT5=
EXTT6=
EXTT7=
EXTT8=
EXTT9=
EXTT10=
EXTT11=
EXTT12=
EXTT13=
EXTT14=
EXTT15=
PLAYORDER=
